# This file uses centimeters as units for non-parametric coordinates.

mtllib stem.mtl
g default
v -5.248292 13.645399 -5.248414
v -5.532663 14.543251 -5.650803
v -5.347314 14.474905 -5.735863
v -5.146889 14.280277 -5.746714
v -4.961902 13.988993 -5.681703
v -4.820515 13.645399 -5.550728
v -4.744253 13.301804 -5.373728
v -4.744727 13.010520 -5.177650
v -4.821863 12.815890 -4.992346
v -4.963920 12.747546 -4.846025
v -5.149269 12.815890 -4.760965
v -5.349694 13.010520 -4.750114
v -5.534681 13.301804 -4.815125
v -5.676068 13.645399 -4.946101
v -5.752330 13.988993 -5.123100
v -5.751856 14.280277 -5.319178
v -5.674720 14.474907 -5.504483
v -5.677779 9.878896 -5.856143
v -5.504342 9.830790 -5.934691
v -5.315812 9.693801 -5.942563
v -5.140892 9.488780 -5.878560
v -5.006212 9.246940 -5.752427
v -4.932275 9.005101 -5.583366
v -4.930338 8.800080 -5.397114
v -5.000696 8.663089 -5.222028
v -5.132637 8.614984 -5.084762
v -5.306075 8.663089 -5.006214
v -5.494605 8.800079 -4.998342
v -5.669525 9.005101 -5.062345
v -5.804205 9.246940 -5.188478
v -5.878142 9.488780 -5.357539
v -5.880078 9.693801 -5.543791
v -5.809720 9.830792 -5.718877
v -5.765036 5.120879 -5.979611
v -5.610291 5.092308 -6.049028
v -5.441454 5.010944 -6.054600
v -5.284227 4.889174 -5.995479
v -5.162549 4.745536 -5.880666
v -5.094942 4.601898 -5.727639
v -5.091700 4.480128 -5.559696
v -5.153316 4.398764 -5.402405
v -5.270410 4.370193 -5.279711
v -5.425154 4.398764 -5.210294
v -5.593992 4.480128 -5.204722
v -5.751218 4.601898 -5.263843
v -5.872897 4.745536 -5.378657
v -5.940503 4.889174 -5.531684
v -5.943745 5.010944 -5.699627
v -5.882129 5.092308 -5.856918
v -5.793636 0.330019 -6.020081
v -5.664360 0.318252 -6.077741
v -5.523000 0.284745 -6.081674
v -5.391076 0.234597 -6.031280
v -5.288671 0.175445 -5.934232
v -5.231376 0.116291 -5.805304
v -5.227915 0.066143 -5.664125
v -5.278813 0.032636 -5.532187
v -5.376322 0.020869 -5.429577
v -5.505597 0.032636 -5.371917
v -5.646957 0.066143 -5.367984
v -5.778882 0.116291 -5.418377
v -5.881286 0.175445 -5.515426
v -5.938581 0.234597 -5.644353
v -5.942043 0.284745 -5.785533
v -5.891145 0.318252 -5.917471
v -5.763634 -4.432429 -5.977628
v -5.666562 -4.432134 -6.020846
v -5.560341 -4.431294 -6.023626
v -5.461141 -4.430038 -5.985546
v -5.384066 -4.428556 -5.912402
v -5.340848 -4.427074 -5.815330
v -5.338069 -4.425816 -5.709109
v -5.376150 -4.424976 -5.609909
v -5.449294 -4.424682 -5.532833
v -5.546366 -4.424976 -5.489616
v -5.652587 -4.425816 -5.486835
v -5.751787 -4.427074 -5.524916
v -5.828862 -4.428556 -5.598060
v -5.872080 -4.430038 -5.695132
v -5.874860 -4.431294 -5.801353
v -5.836779 -4.432134 -5.900553
v -5.606464 -4.428556 -5.755231
vt 0.500000 3.087413
vt 0.750000 3.087413
vt 0.687500 3.087413
vt 0.625000 3.087413
vt 0.562500 3.087413
vt 0.500000 3.087413
vt 0.437500 3.087413
vt 0.375000 3.087413
vt 0.312500 3.087413
vt 0.250000 3.087413
vt 0.187500 3.087413
vt 0.125000 3.087413
vt 0.062500 3.087413
vt 1.000000 3.087413
vt 0.937500 3.087413
vt 0.875000 3.087413
vt 0.812500 3.087413
vt 0.750000 1.793709
vt 0.687500 1.793709
vt 0.625000 1.793709
vt 0.562500 1.793709
vt 0.500000 1.793709
vt 0.437500 1.793709
vt 0.375000 1.793709
vt 0.312500 1.793709
vt 0.250000 1.793709
vt 0.187500 1.793709
vt 0.125000 1.793709
vt 0.062500 1.793709
vt 1.000000 1.793709
vt 0.937500 1.793709
vt 0.875000 1.793709
vt 0.812500 1.793709
vt 0.750000 0.500005
vt 0.687500 0.500005
vt 0.625000 0.500005
vt 0.562500 0.500005
vt 0.500000 0.500005
vt 0.437500 0.500005
vt 0.375000 0.500005
vt 0.312500 0.500005
vt 0.250000 0.500005
vt 0.187500 0.500005
vt 0.125000 0.500005
vt 0.062500 0.500005
vt 0.000000 0.500005
vt 0.937500 0.500005
vt 0.875000 0.500005
vt 0.812500 0.500005
vt 0.750000 -0.793699
vt 0.687500 -0.793699
vt 0.625000 -0.793699
vt 0.562500 -0.793699
vt 0.500000 -0.793699
vt 0.437500 -0.793699
vt 0.375000 -0.793699
vt 0.312500 -0.793699
vt 0.250000 -0.793699
vt 0.187500 -0.793699
vt 0.125000 -0.793699
vt 0.062500 -0.793699
vt 0.000000 -0.793699
vt 0.937500 -0.793699
vt 0.875000 -0.793699
vt 0.812500 -0.793699
vt 0.750000 -2.087403
vt 0.687500 -2.087403
vt 0.625000 -2.087403
vt 0.562499 -2.087403
vt 0.499999 -2.087403
vt 0.437499 -2.087403
vt 0.374999 -2.087403
vt 0.312499 -2.087403
vt 0.250000 -2.087403
vt 0.187500 -2.087403
vt 0.125000 -2.087403
vt 0.062501 -2.087403
vt 0.000001 -2.087403
vt 0.937501 -2.087403
vt 0.875001 -2.087403
vt 0.812501 -2.087403
vt 0.500000 -2.087403
vt -0.000000 3.087413
vt -0.000000 1.793709
vt -0.000000 3.087413
vt -0.000000 1.793709
vt -0.000000 1.793709
vt -0.000000 1.793709
vt -0.062500 0.500005
vt -0.062500 -0.793699
vt -0.062500 0.500005
vt -0.062500 -0.793699
vt -0.062499 -2.087403
vt -0.062500 -0.793699
vt -0.062499 -2.087403
vt -0.062499 -2.087403
vn 0.505952 0.481103 0.715927
vn 0.505952 0.481103 0.715927
vn 0.505954 0.481103 0.715926
vn 0.505952 0.481103 0.715927
vn 0.505951 0.481103 0.715928
vn 0.505952 0.481103 0.715927
vn 0.505952 0.481103 0.715927
vn 0.505952 0.481103 0.715928
vn 0.505951 0.481103 0.715928
vn 0.505952 0.481103 0.715927
vn 0.505953 0.481102 0.715928
vn 0.505952 0.481103 0.715928
vn 0.505952 0.481103 0.715927
vn 0.505953 0.481103 0.715927
vn 0.505953 0.481102 0.715928
vn 0.505952 0.481103 0.715927
vn 0.505952 0.481103 0.715927
vn 0.505953 0.481103 0.715927
vn 0.505952 0.481103 0.715927
vn 0.505953 0.481103 0.715927
vn 0.505952 0.481103 0.715927
vn 0.505952 0.481103 0.715927
vn 0.505953 0.481103 0.715927
vn 0.505953 0.481103 0.715927
vn 0.505952 0.481103 0.715927
vn 0.505952 0.481103 0.715928
vn 0.505953 0.481103 0.715927
vn 0.505952 0.481103 0.715927
vn 0.505952 0.481103 0.715928
vn 0.505952 0.481103 0.715928
vn 0.505952 0.481103 0.715927
vn 0.505952 0.481103 0.715928
vn 0.505952 0.481103 0.715928
vn 0.505952 0.481103 0.715927
vn 0.505953 0.481102 0.715928
vn 0.505952 0.481103 0.715928
vn 0.505952 0.481103 0.715927
vn 0.505953 0.481103 0.715927
vn 0.505953 0.481102 0.715928
vn 0.505952 0.481103 0.715927
vn 0.505953 0.481103 0.715927
vn 0.505953 0.481103 0.715927
vn 0.505952 0.481103 0.715927
vn 0.505953 0.481103 0.715927
vn 0.505953 0.481103 0.715927
vn 0.505952 0.481103 0.715927
vn 0.505954 0.481103 0.715926
vn 0.505953 0.481103 0.715927
vn -0.576265 0.053817 -0.815489
vn -0.215313 0.038633 -0.975781
vn -0.576568 0.042724 -0.815932
vn -0.576265 0.053817 -0.815489
vn -0.211414 0.048908 -0.976172
vn -0.215313 0.038633 -0.975781
vn -0.211414 0.048908 -0.976172
vn 0.173746 0.027203 -0.984415
vn -0.215313 0.038633 -0.975781
vn -0.211414 0.048908 -0.976172
vn 0.178929 0.035346 -0.983227
vn 0.173746 0.027203 -0.984415
vn 0.178929 0.035346 -0.983227
vn 0.529946 0.010488 -0.847967
vn 0.173746 0.027203 -0.984415
vn 0.178929 0.035346 -0.983227
vn 0.532864 0.015757 -0.846054
vn 0.529946 0.010488 -0.847967
vn 0.532864 0.015757 -0.846054
vn 0.806290 -0.009052 -0.591451
vn 0.529946 0.010488 -0.847967
vn 0.532864 0.015757 -0.846054
vn 0.806019 -0.006950 -0.591850
vn 0.806290 -0.009052 -0.591451
vn 0.806019 -0.006950 -0.591850
vn 0.968214 -0.028931 -0.248446
vn 0.806290 -0.009052 -0.591451
vn 0.806019 -0.006950 -0.591850
vn 0.967057 -0.030039 -0.252781
vn 0.968214 -0.028931 -0.248446
vn 0.967057 -0.030039 -0.252781
vn 0.989172 -0.046498 0.139200
vn 0.968214 -0.028931 -0.248446
vn 0.967057 -0.030039 -0.252781
vn 0.989830 -0.050604 0.132947
vn 0.989172 -0.046498 0.139200
vn 0.989830 -0.050604 0.132947
vn 0.854582 -0.058834 0.515973
vn 0.989172 -0.046498 0.139200
vn 0.989830 -0.050604 0.132947
vn 0.856578 -0.065212 0.511880
vn 0.854582 -0.058834 0.515973
vn 0.856578 -0.065212 0.511880
vn 0.576024 -0.063313 0.814977
vn 0.854582 -0.058834 0.515973
vn 0.856578 -0.065212 0.511880
vn 0.575736 -0.070549 0.814586
vn 0.576024 -0.063313 0.814977
vn 0.575736 -0.070549 0.814586
vn 0.201192 -0.058829 0.977784
vn 0.576024 -0.063313 0.814977
vn 0.575736 -0.070549 0.814586
vn 0.196683 -0.065160 0.978300
vn 0.201192 -0.058829 0.977784
vn 0.196683 -0.065160 0.978300
vn -0.198919 -0.046488 0.978913
vn 0.201192 -0.058829 0.977784
vn 0.196683 -0.065160 0.978300
vn -0.204945 -0.050514 0.977469
vn -0.198919 -0.046488 0.978913
vn -0.204945 -0.050514 0.977469
vn -0.557369 -0.028916 0.829761
vn -0.198919 -0.046488 0.978913
vn -0.204945 -0.050514 0.977469
vn -0.560941 -0.029931 0.827314
vn -0.557369 -0.028916 0.829761
vn -0.560941 -0.029931 0.827314
vn -0.826677 -0.009034 0.562604
vn -0.557369 -0.028916 0.829761
vn -0.560941 -0.029931 0.827314
vn -0.826861 -0.006838 0.562365
vn -0.826677 -0.009034 0.562604
vn -0.826861 -0.006838 0.562365
vn -0.976239 0.010506 0.216443
vn -0.826677 -0.009034 0.562604
vn -0.826861 -0.006838 0.562365
vn -0.975374 0.015860 0.219985
vn -0.976239 0.010506 0.216443
vn -0.975374 0.015860 0.219985
vn -0.985933 0.027217 -0.164910
vn -0.976239 0.010506 0.216443
vn -0.975374 0.015860 0.219985
vn -0.986557 0.035427 -0.159529
vn -0.985933 0.027217 -0.164910
vn -0.986557 0.035427 -0.159529
vn -0.847878 0.038641 -0.528781
vn -0.985933 0.027217 -0.164910
vn -0.986557 0.035427 -0.159529
vn -0.849569 0.048954 -0.525200
vn -0.847878 0.038641 -0.528781
vn -0.849569 0.048954 -0.525200
vn -0.576568 0.042724 -0.815932
vn -0.847878 0.038641 -0.528781
vn -0.849569 0.048954 -0.525200
vn -0.576265 0.053817 -0.815489
vn -0.576568 0.042724 -0.815932
vn -0.576568 0.042724 -0.815932
vn -0.221731 0.018437 -0.974934
vn -0.576957 0.021064 -0.816503
vn -0.576568 0.042724 -0.815932
vn -0.215313 0.038633 -0.975781
vn -0.221731 0.018437 -0.974934
vn -0.215313 0.038633 -0.975781
vn 0.164987 0.010994 -0.986234
vn -0.221731 0.018437 -0.974934
vn -0.215313 0.038633 -0.975781
vn 0.173746 0.027203 -0.984415
vn 0.164987 0.010994 -0.986234
vn 0.173746 0.027203 -0.984415
vn 0.524844 -0.000103 -0.851198
vn 0.164987 0.010994 -0.986234
vn 0.173746 0.027203 -0.984415
vn 0.529946 0.010488 -0.847967
vn 0.524844 -0.000103 -0.851198
vn 0.529946 0.010488 -0.847967
vn 0.806598 -0.013248 -0.590951
vn 0.524844 -0.000103 -0.851198
vn 0.529946 0.010488 -0.847967
vn 0.806290 -0.009052 -0.591451
vn 0.806598 -0.013248 -0.590951
vn 0.806290 -0.009052 -0.591451
vn 0.970064 -0.026617 -0.241386
vn 0.806598 -0.013248 -0.590951
vn 0.806290 -0.009052 -0.591451
vn 0.968214 -0.028931 -0.248446
vn 0.970064 -0.026617 -0.241386
vn 0.968214 -0.028931 -0.248446
vn 0.988037 -0.038264 0.149394
vn 0.970064 -0.026617 -0.241386
vn 0.968214 -0.028931 -0.248446
vn 0.989172 -0.046498 0.139200
vn 0.988037 -0.038264 0.149394
vn 0.989172 -0.046498 0.139200
vn 0.851321 -0.046274 0.522601
vn 0.988037 -0.038264 0.149394
vn 0.989172 -0.046498 0.139200
vn 0.854582 -0.058834 0.515973
vn 0.851321 -0.046274 0.522601
vn 0.854582 -0.058834 0.515973
vn 0.576495 -0.049140 0.815621
vn 0.851321 -0.046274 0.522601
vn 0.854582 -0.058834 0.515973
vn 0.576024 -0.063313 0.814977
vn 0.576495 -0.049140 0.815621
vn 0.576024 -0.063313 0.814977
vn 0.208549 -0.046275 0.976917
vn 0.576495 -0.049140 0.815621
vn 0.576024 -0.063313 0.814977
vn 0.201192 -0.058829 0.977784
vn 0.208549 -0.046275 0.976917
vn 0.201192 -0.058829 0.977784
vn -0.188923 -0.038266 0.981246
vn 0.208549 -0.046275 0.976917
vn 0.201192 -0.058829 0.977784
vn -0.198919 -0.046488 0.978913
vn -0.188923 -0.038266 0.981246
vn -0.198919 -0.046488 0.978913
vn -0.551339 -0.026618 0.833856
vn -0.188923 -0.038266 0.981246
vn -0.198919 -0.046488 0.978913
vn -0.557369 -0.028916 0.829761
vn -0.551339 -0.026618 0.833856
vn -0.557369 -0.028916 0.829761
vn -0.826322 -0.013247 0.563043
vn -0.551339 -0.026618 0.833856
vn -0.557369 -0.028916 0.829761
vn -0.826677 -0.009034 0.562604
vn -0.826322 -0.013247 0.563043
vn -0.826677 -0.009034 0.562604
vn -0.977588 -0.000099 0.210527
vn -0.826322 -0.013247 0.563043
vn -0.826677 -0.009034 0.562604
vn -0.976239 0.010506 0.216443
vn -0.977588 -0.000099 0.210527
vn -0.976239 0.010506 0.216443
vn -0.984719 0.010997 -0.173801
vn -0.977588 -0.000099 0.210527
vn -0.976239 0.010506 0.216443
vn -0.985933 0.027217 -0.164910
vn -0.984719 0.010997 -0.173801
vn -0.985933 0.027217 -0.164910
vn -0.844923 0.018439 -0.534570
vn -0.984719 0.010997 -0.173801
vn -0.985933 0.027217 -0.164910
vn -0.847878 0.038641 -0.528781
vn -0.844923 0.018439 -0.534570
vn -0.847878 0.038641 -0.528781
vn -0.576957 0.021064 -0.816503
vn -0.844923 0.018439 -0.534570
vn -0.847878 0.038641 -0.528781
vn -0.576568 0.042724 -0.815932
vn -0.576957 0.021064 -0.816503
vn -0.576957 0.021064 -0.816503
vn -0.224098 -0.001493 -0.974565
vn -0.577081 -0.000191 -0.816687
vn -0.576957 0.021064 -0.816503
vn -0.221731 0.018437 -0.974934
vn -0.224098 -0.001493 -0.974565
vn -0.221731 0.018437 -0.974934
vn 0.162333 -0.005212 -0.986722
vn -0.224098 -0.001493 -0.974565
vn -0.221731 0.018437 -0.974934
vn 0.164987 0.010994 -0.986234
vn 0.162333 -0.005212 -0.986722
vn 0.164987 0.010994 -0.986234
vn 0.524674 -0.010806 -0.851235
vn 0.162333 -0.005212 -0.986722
vn 0.164987 0.010994 -0.986234
vn 0.524844 -0.000103 -0.851198
vn 0.524674 -0.010806 -0.851235
vn 0.524844 -0.000103 -0.851198
vn 0.809000 -0.017460 -0.587550
vn 0.524674 -0.010806 -0.851235
vn 0.524844 -0.000103 -0.851198
vn 0.806598 -0.013248 -0.590951
vn 0.809000 -0.017460 -0.587550
vn 0.806598 -0.013248 -0.590951
vn 0.972018 -0.024198 -0.233658
vn 0.809000 -0.017460 -0.587550
vn 0.806598 -0.013248 -0.590951
vn 0.970064 -0.026617 -0.241386
vn 0.972018 -0.024198 -0.233658
vn 0.970064 -0.026617 -0.241386
vn 0.986949 -0.029993 0.158217
vn 0.972018 -0.024198 -0.233658
vn 0.970064 -0.026617 -0.241386
vn 0.988037 -0.038264 0.149394
vn 0.986949 -0.029993 0.158217
vn 0.988037 -0.038264 0.149394
vn 0.848664 -0.033918 0.527843
vn 0.986949 -0.029993 0.158217
vn 0.988037 -0.038264 0.149394
vn 0.851321 -0.046274 0.522601
vn 0.848664 -0.033918 0.527843
vn 0.851321 -0.046274 0.522601
vn 0.576835 -0.035311 0.816097
vn 0.848664 -0.033918 0.527843
vn 0.851321 -0.046274 0.522601
vn 0.576495 -0.049140 0.815621
vn 0.576835 -0.035311 0.816097
vn 0.576495 -0.049140 0.815621
vn 0.214382 -0.033929 0.976160
vn 0.576835 -0.035311 0.816097
vn 0.576495 -0.049140 0.815621
vn 0.208549 -0.046275 0.976917
vn 0.214382 -0.033929 0.976160
vn 0.208549 -0.046275 0.976917
vn -0.180242 -0.030012 0.983164
vn 0.214382 -0.033929 0.976160
vn 0.208549 -0.046275 0.976917
vn -0.188923 -0.038266 0.981246
vn -0.180242 -0.030012 0.983164
vn -0.188923 -0.038266 0.981246
vn -0.544711 -0.024220 0.838274
vn -0.180242 -0.030012 0.983164
vn -0.188923 -0.038266 0.981246
vn -0.551339 -0.026618 0.833856
vn -0.544711 -0.024220 0.838274
vn -0.551339 -0.026618 0.833856
vn -0.823922 -0.017482 0.566433
vn -0.544711 -0.024220 0.838274
vn -0.551339 -0.026618 0.833856
vn -0.826322 -0.013247 0.563043
vn -0.823922 -0.017482 0.566433
vn -0.826322 -0.013247 0.563043
vn -0.977568 -0.010824 0.210342
vn -0.823922 -0.017482 0.566433
vn -0.826322 -0.013247 0.563043
vn -0.977588 -0.000099 0.210527
vn -0.977568 -0.010824 0.210342
vn -0.977588 -0.000099 0.210527
vn -0.984291 -0.005225 -0.176478
vn -0.977568 -0.010824 0.210342
vn -0.977588 -0.000099 0.210527
vn -0.984719 0.010997 -0.173801
vn -0.984291 -0.005225 -0.176478
vn -0.984719 0.010997 -0.173801
vn -0.843780 -0.001499 -0.536687
vn -0.984291 -0.005225 -0.176478
vn -0.984719 0.010997 -0.173801
vn -0.844923 0.018439 -0.534570
vn -0.843780 -0.001499 -0.536687
vn -0.844923 0.018439 -0.534570
vn -0.577081 -0.000191 -0.816687
vn -0.843780 -0.001499 -0.536687
vn -0.844923 0.018439 -0.534570
vn -0.576957 0.021064 -0.816503
vn -0.577081 -0.000191 -0.816687
vn -0.577081 -0.000191 -0.816687
vn -0.222725 -0.011550 -0.974813
vn -0.577036 -0.010937 -0.816645
vn -0.577081 -0.000191 -0.816687
vn -0.224098 -0.001493 -0.974565
vn -0.222725 -0.011550 -0.974813
vn -0.224098 -0.001493 -0.974565
vn 0.165443 -0.013383 -0.986128
vn -0.222725 -0.011550 -0.974813
vn -0.224098 -0.001493 -0.974565
vn 0.162333 -0.005212 -0.986722
vn 0.165443 -0.013383 -0.986128
vn 0.162333 -0.005212 -0.986722
vn 0.529158 -0.016167 -0.848370
vn 0.165443 -0.013383 -0.986128
vn 0.162333 -0.005212 -0.986722
vn 0.524674 -0.010806 -0.851235
vn 0.529158 -0.016167 -0.848370
vn 0.524674 -0.010806 -0.851235
vn 0.813236 -0.019488 -0.581607
vn 0.529158 -0.016167 -0.848370
vn 0.524674 -0.010806 -0.851235
vn 0.809000 -0.017460 -0.587550
vn 0.813236 -0.019488 -0.581607
vn 0.809000 -0.017460 -0.587550
vn 0.973930 -0.022846 -0.225694
vn 0.813236 -0.019488 -0.581607
vn 0.809000 -0.017460 -0.587550
vn 0.972018 -0.024198 -0.233658
vn 0.973930 -0.022846 -0.225694
vn 0.972018 -0.024198 -0.233658
vn 0.985896 -0.025727 0.165367
vn 0.973930 -0.022846 -0.225694
vn 0.972018 -0.024198 -0.233658
vn 0.986949 -0.029993 0.158217
vn 0.985896 -0.025727 0.165367
vn 0.986949 -0.029993 0.158217
vn 0.846570 -0.027683 0.531557
vn 0.985896 -0.025727 0.165367
vn 0.986949 -0.029993 0.158217
vn 0.848664 -0.033918 0.527843
vn 0.846570 -0.027683 0.531557
vn 0.848664 -0.033918 0.527843
vn 0.576973 -0.028405 0.816269
vn 0.846570 -0.027683 0.531557
vn 0.848664 -0.033918 0.527843
vn 0.576835 -0.035311 0.816097
vn 0.576973 -0.028405 0.816269
vn 0.576835 -0.035311 0.816097
vn 0.218606 -0.027779 0.975418
vn 0.576973 -0.028405 0.816269
vn 0.576835 -0.035311 0.816097
vn 0.214382 -0.033929 0.976160
vn 0.218606 -0.027779 0.975418
vn 0.214382 -0.033929 0.976160
vn -0.173124 -0.025902 0.984559
vn 0.218606 -0.027779 0.975418
vn 0.214382 -0.033929 0.976160
vn -0.180242 -0.030012 0.983164
vn -0.173124 -0.025902 0.984559
vn -0.180242 -0.030012 0.983164
vn -0.537821 -0.023070 0.842743
vn -0.173124 -0.025902 0.984559
vn -0.180242 -0.030012 0.983164
vn -0.544711 -0.024220 0.838274
vn -0.537821 -0.023070 0.842743
vn -0.544711 -0.024220 0.838274
vn -0.819725 -0.019724 0.572418
vn -0.537821 -0.023070 0.842743
vn -0.544711 -0.024220 0.838274
vn -0.823922 -0.017482 0.566433
vn -0.819725 -0.019724 0.572418
vn -0.823922 -0.017482 0.566433
vn -0.976361 -0.016379 0.215524
vn -0.819725 -0.019724 0.572418
vn -0.823922 -0.017482 0.566433
vn -0.977568 -0.010824 0.210342
vn -0.976361 -0.016379 0.215524
vn -0.977568 -0.010824 0.210342
vn -0.984765 -0.013541 -0.173360
vn -0.976361 -0.016379 0.215524
vn -0.977568 -0.010824 0.210342
vn -0.984291 -0.005225 -0.176478
vn -0.984765 -0.013541 -0.173360
vn -0.984291 -0.005225 -0.176478
vn -0.844459 -0.011634 -0.535493
vn -0.984765 -0.013541 -0.173360
vn -0.984291 -0.005225 -0.176478
vn -0.843780 -0.001499 -0.536687
vn -0.844459 -0.011634 -0.535493
vn -0.843780 -0.001499 -0.536687
vn -0.577036 -0.010937 -0.816645
vn -0.844459 -0.011634 -0.535493
vn -0.843780 -0.001499 -0.536687
vn -0.577081 -0.000191 -0.816687
vn -0.577036 -0.010937 -0.816645
vn 0.008209 -0.999899 0.011615
vn 0.008209 -0.999899 0.011616
vn 0.008212 -0.999899 0.011612
vn 0.008209 -0.999899 0.011615
vn 0.008212 -0.999899 0.011612
vn 0.008208 -0.999899 0.011612
vn 0.008209 -0.999899 0.011615
vn 0.008208 -0.999899 0.011612
vn 0.008206 -0.999899 0.011612
vn 0.008209 -0.999899 0.011615
vn 0.008206 -0.999899 0.011612
vn 0.008206 -0.999899 0.011611
vn 0.008209 -0.999899 0.011615
vn 0.008206 -0.999899 0.011611
vn 0.008208 -0.999899 0.011620
vn 0.008209 -0.999899 0.011615
vn 0.008208 -0.999899 0.011620
vn 0.008210 -0.999899 0.011622
vn 0.008209 -0.999899 0.011615
vn 0.008210 -0.999899 0.011622
vn 0.008213 -0.999899 0.011614
vn 0.008209 -0.999899 0.011615
vn 0.008213 -0.999899 0.011614
vn 0.008209 -0.999899 0.011616
vn 0.008209 -0.999899 0.011615
vn 0.008209 -0.999899 0.011616
vn 0.008206 -0.999899 0.011619
vn 0.008209 -0.999899 0.011615
vn 0.008206 -0.999899 0.011619
vn 0.008215 -0.999899 0.011619
vn 0.008209 -0.999899 0.011615
vn 0.008215 -0.999899 0.011619
vn 0.008213 -0.999899 0.011616
vn 0.008209 -0.999899 0.011615
vn 0.008213 -0.999899 0.011616
vn 0.008206 -0.999899 0.011611
vn 0.008209 -0.999899 0.011615
vn 0.008206 -0.999899 0.011611
vn 0.008206 -0.999899 0.011612
vn 0.008209 -0.999899 0.011615
vn 0.008206 -0.999899 0.011612
vn 0.008206 -0.999899 0.011614
vn 0.008209 -0.999899 0.011615
vn 0.008206 -0.999899 0.011614
vn 0.008204 -0.999899 0.011618
vn 0.008209 -0.999899 0.011615
vn 0.008204 -0.999899 0.011618
vn 0.008209 -0.999899 0.011616
s off
g StengelFBXASC03201 Blume03
usemtl Cylinder03SG1
f 1/1/1 3/3/2 2/2/3
f 1/1/4 4/4/5 3/3/6
f 1/1/7 5/5/8 4/4/9
f 1/1/10 6/6/11 5/5/12
f 1/1/13 7/7/14 6/6/15
f 1/1/16 8/8/17 7/7/18
f 1/1/19 9/9/20 8/8/21
f 1/1/22 10/10/23 9/9/24
f 1/1/25 11/11/26 10/10/27
f 1/1/28 12/12/29 11/11/30
f 1/1/31 13/13/32 12/12/33
f 1/1/34 14/83/35 13/13/36
f 1/1/37 15/15/38 14/14/39
f 1/1/40 16/16/41 15/15/42
f 1/1/43 17/17/44 16/16/45
f 1/1/46 2/2/47 17/17/48
f 2/2/49 19/19/50 18/18/51
f 2/2/52 3/3/53 19/19/54
f 3/3/55 20/20/56 19/19/57
f 3/3/58 4/4/59 20/20/60
f 4/4/61 21/21/62 20/20/63
f 4/4/64 5/5/65 21/21/66
f 5/5/67 22/22/68 21/21/69
f 5/5/70 6/6/71 22/22/72
f 6/6/73 23/23/74 22/22/75
f 6/6/76 7/7/77 23/23/78
f 7/7/79 24/24/80 23/23/81
f 7/7/82 8/8/83 24/24/84
f 8/8/85 25/25/86 24/24/87
f 8/8/88 9/9/89 25/25/90
f 9/9/91 26/26/92 25/25/93
f 9/9/94 10/10/95 26/26/96
f 10/10/97 27/27/98 26/26/99
f 10/10/100 11/11/101 27/27/102
f 11/11/103 28/28/104 27/27/105
f 11/11/106 12/12/107 28/28/108
f 12/12/109 29/29/110 28/28/111
f 12/12/112 13/13/113 29/29/114
f 13/13/115 30/84/116 29/29/117
f 13/13/118 14/85/119 30/86/120
f 14/14/121 31/31/122 30/30/123
f 14/14/124 15/15/125 31/31/126
f 15/15/127 32/32/128 31/31/129
f 15/15/130 16/16/131 32/32/132
f 16/16/133 33/33/134 32/32/135
f 16/16/136 17/17/137 33/33/138
f 17/17/139 18/18/140 33/33/141
f 17/17/142 2/2/143 18/18/144
f 18/18/145 35/35/146 34/34/147
f 18/18/148 19/19/149 35/35/150
f 19/19/151 36/36/152 35/35/153
f 19/19/154 20/20/155 36/36/156
f 20/20/157 37/37/158 36/36/159
f 20/20/160 21/21/161 37/37/162
f 21/21/163 38/38/164 37/37/165
f 21/21/166 22/22/167 38/38/168
f 22/22/169 39/39/170 38/38/171
f 22/22/172 23/23/173 39/39/174
f 23/23/175 40/40/176 39/39/177
f 23/23/178 24/24/179 40/40/180
f 24/24/181 41/41/182 40/40/183
f 24/24/184 25/25/185 41/41/186
f 25/25/187 42/42/188 41/41/189
f 25/25/190 26/26/191 42/42/192
f 26/26/193 43/43/194 42/42/195
f 26/26/196 27/27/197 43/43/198
f 27/27/199 44/44/200 43/43/201
f 27/27/202 28/28/203 44/44/204
f 28/28/205 45/45/206 44/44/207
f 28/28/208 29/29/209 45/45/210
f 29/29/211 46/46/212 45/45/213
f 29/29/214 30/87/215 46/46/216
f 30/88/217 47/89/218 46/46/219
f 30/30/220 31/31/221 47/47/222
f 31/31/223 48/48/224 47/47/225
f 31/31/226 32/32/227 48/48/228
f 32/32/229 49/49/230 48/48/231
f 32/32/232 33/33/233 49/49/234
f 33/33/235 34/34/236 49/49/237
f 33/33/238 18/18/239 34/34/240
f 34/34/241 51/51/242 50/50/243
f 34/34/244 35/35/245 51/51/246
f 35/35/247 52/52/248 51/51/249
f 35/35/250 36/36/251 52/52/252
f 36/36/253 53/53/254 52/52/255
f 36/36/256 37/37/257 53/53/258
f 37/37/259 54/54/260 53/53/261
f 37/37/262 38/38/263 54/54/264
f 38/38/265 55/55/266 54/54/267
f 38/38/268 39/39/269 55/55/270
f 39/39/271 56/56/272 55/55/273
f 39/39/274 40/40/275 56/56/276
f 40/40/277 57/57/278 56/56/279
f 40/40/280 41/41/281 57/57/282
f 41/41/283 58/58/284 57/57/285
f 41/41/286 42/42/287 58/58/288
f 42/42/289 59/59/290 58/58/291
f 42/42/292 43/43/293 59/59/294
f 43/43/295 60/60/296 59/59/297
f 43/43/298 44/44/299 60/60/300
f 44/44/301 61/61/302 60/60/303
f 44/44/304 45/45/305 61/61/306
f 45/45/307 62/62/308 61/61/309
f 45/45/310 46/46/311 62/62/312
f 46/46/313 63/90/314 62/62/315
f 46/46/316 47/91/317 63/92/318
f 47/47/319 64/64/320 63/63/321
f 47/47/322 48/48/323 64/64/324
f 48/48/325 65/65/326 64/64/327
f 48/48/328 49/49/329 65/65/330
f 49/49/331 50/50/332 65/65/333
f 49/49/334 34/34/335 50/50/336
f 50/50/337 67/67/338 66/66/339
f 50/50/340 51/51/341 67/67/342
f 51/51/343 68/68/344 67/67/345
f 51/51/346 52/52/347 68/68/348
f 52/52/349 69/69/350 68/68/351
f 52/52/352 53/53/353 69/69/354
f 53/53/355 70/70/356 69/69/357
f 53/53/358 54/54/359 70/70/360
f 54/54/361 71/71/362 70/70/363
f 54/54/364 55/55/365 71/71/366
f 55/55/367 72/72/368 71/71/369
f 55/55/370 56/56/371 72/72/372
f 56/56/373 73/73/374 72/72/375
f 56/56/376 57/57/377 73/73/378
f 57/57/379 74/74/380 73/73/381
f 57/57/382 58/58/383 74/74/384
f 58/58/385 75/75/386 74/74/387
f 58/58/388 59/59/389 75/75/390
f 59/59/391 76/76/392 75/75/393
f 59/59/394 60/60/395 76/76/396
f 60/60/397 77/77/398 76/76/399
f 60/60/400 61/61/401 77/77/402
f 61/61/403 78/78/404 77/77/405
f 61/61/406 62/62/407 78/78/408
f 62/62/409 79/93/410 78/78/411
f 62/62/412 63/94/413 79/95/414
f 63/63/415 80/80/416 79/79/417
f 63/63/418 64/64/419 80/80/420
f 64/64/421 81/81/422 80/80/423
f 64/64/424 65/65/425 81/81/426
f 65/65/427 66/66/428 81/81/429
f 65/65/430 50/50/431 66/66/432
f 82/82/433 66/66/434 67/67/435
f 82/82/436 67/67/437 68/68/438
f 82/82/439 68/68/440 69/69/441
f 82/82/442 69/69/443 70/70/444
f 82/82/445 70/70/446 71/71/447
f 82/82/448 71/71/449 72/72/450
f 82/82/451 72/72/452 73/73/453
f 82/82/454 73/73/455 74/74/456
f 82/82/457 74/74/458 75/75/459
f 82/82/460 75/75/461 76/76/462
f 82/82/463 76/76/464 77/77/465
f 82/82/466 77/77/467 78/78/468
f 82/82/469 78/78/470 79/96/471
f 82/82/472 79/79/473 80/80/474
f 82/82/475 80/80/476 81/81/477
f 82/82/478 81/81/479 66/66/480
